<svg id="Layer_1" data-name="Layer 1" xmlns="http://www.w3.org/2000/svg" xmlns:xlink="http://www.w3.org/1999/xlink" viewBox="0 0 512 512"><defs><style>.cls-1{fill:url(#linear-gradient);}.cls-2{fill:#c65000;}.cls-3{fill:url(#linear-gradient-2);}.cls-4{fill:url(#linear-gradient-3);}</style><linearGradient id="linear-gradient" x1="362.86" y1="670.46" x2="359.38" y2="389.77" gradientTransform="matrix(-0.98, -0.21, -0.21, 0.98, 742.54, -154.3)" gradientUnits="userSpaceOnUse"><stop offset="0" stop-color="#ff6300"/><stop offset="0.18" stop-color="#ff6700"/><stop offset="0.34" stop-color="#ff7100"/><stop offset="0.49" stop-color="#ff8400"/><stop offset="0.64" stop-color="#ff9e00"/><stop offset="0.79" stop-color="#ffbf00"/><stop offset="0.93" stop-color="#ffe700"/><stop offset="1" stop-color="#ff0"/></linearGradient><linearGradient id="linear-gradient-2" x1="650.37" y1="335.69" x2="759.78" y2="335.69" gradientTransform="matrix(-0.96, 0.02, 0.04, 0.98, 747.16, -295.29)" gradientUnits="userSpaceOnUse"><stop offset="0" stop-color="#00450b"/><stop offset="0.46" stop-color="#29751b"/><stop offset="1" stop-color="#5db130"/></linearGradient><linearGradient id="linear-gradient-3" x1="291.66" y1="467.24" x2="286.52" y2="53.84" gradientUnits="userSpaceOnUse"><stop offset="0" stop-color="#f7931e"/><stop offset="0.24" stop-color="#f7961d"/><stop offset="0.42" stop-color="#f8a01a"/><stop offset="0.59" stop-color="#f9b016"/><stop offset="0.75" stop-color="#fbc80f"/><stop offset="0.9" stop-color="#fde507"/><stop offset="1" stop-color="#ff0"/></linearGradient></defs><title>Artboard 1</title><g id="mango"><path class="cls-1" d="M81.89,187.21C42.27,271.94,124.4,398.74,243.3,439.14c88.65,30.13,206.25,15.11,224-23.17,10.06-21.72-9.46-56.45-32.5-75.46-21.24-17.53-33.91-12.15-48.4-27.5-24.65-26.1.56-53.83-11.23-95.77C358.51,158,285,130.78,274.49,126.88c-21.64-8-68.27-25.27-117.83-7.32a139.9,139.9,0,0,0-34.82,19.1S95.89,157.26,81.89,187.21Z"/><path class="cls-2" d="M146.41,47.66,159.7,66.48s-53,38.78-19.63,66L125.9,149.12s-24.67-33.18,16.58-102.18"/><path class="cls-3" d="M133.41,73.34c1.89-.09-2.8-32.71-33.65-46.28-28.08-12.35-67.85-4.18-72.15,9.73C23.88,48.88,47.43,64,56.2,69.19,56.2,69.19,71,76.25,133.41,73.34Z"/></g><polygon id="thunder" class="cls-4" points="250.47 28 395 28 268.24 256.25 368.36 256.25 208.49 493.05 265.01 321.87 181.03 320.44 250.47 28"/></svg>