<?xml version="1.0" encoding="utf-8"?>
<!-- Generator: Adobe Illustrator 24.0.1, SVG Export Plug-In . SVG Version: 6.00 Build 0)  -->
<svg version="1.1" xmlns="http://www.w3.org/2000/svg" xmlns:xlink="http://www.w3.org/1999/xlink" x="0px" y="0px"
	 viewBox="0 0 512 512" style="enable-background:new 0 0 512 512;" xml:space="preserve">
<style type="text/css">
	.st0{fill:#99582B;}
	.st1{fill:#B96933;}
	.st2{fill:#8E562F;}
	.st3{fill:#050505;}
	.st4{fill:#EFEFEF;}
	.st5{fill:#1E0D04;}
	.st6{fill:#070707;}
	.st7{fill:#995629;}
	.st8{fill:#93562C;stroke:#663717;stroke-miterlimit:10;}
</style>
<g id="Layer_1">
	<title>Artboard 1emag_happy</title>
	<g id="ears">
		<path class="st0" d="M97,262c-8.6-6.6-26-20-39-14c-14.7,6.8-14.2,33.7-14,43c0.2,7.7,0.6,30.1,17,49c16.7,19.2,49,33.7,64,22
			c18.8-14.6,0-61.5-1-64C118.3,283.8,109,271.4,97,262z"/>
		<path class="st0" d="M395.3,257.9c8.6-6.6,26-20,39-14c14.7,6.8,14.2,33.7,14,43c-0.1,7.7-0.6,30.1-17,49
			c-16.7,19.2-48.9,33.7-64,22c-18.8-14.6,0-61.5,1-64C374,279.8,383.3,267.4,395.3,257.9z"/>
	</g>
	<g id="skin">
		<circle class="st1" cx="249.5" cy="291.5" r="164"/>
		<path class="st0" d="M259,128c28.3,7.8,54.3,22.2,76,42c13,11.9,46.4,43.6,55,97c1.4,8.6,9.4,63.8-25,114
			c-19.4,28.3-44.1,43-58,51c-30.5,17.7-61.5,20.5-61,23s22.9-0.3,34-2c8.8-1.3,17.5-3.3,26-6c7.2-2.5,14.2-5.5,21-9
			c5.9-2.9,11.6-6.3,17-10c6-4.2,11.7-8.9,17-14c5.7-5.3,11-11,16-17c5.1-6,9.8-12.3,14-19c6.9-11.2,12.3-23.3,16-36
			c3.3-10.4,5.7-21.1,7-32c0.9-8,1.3-16,1-24c-0.7-18.2-4.4-31.8-7-41c-2.7-9.6-5.6-19.7-12-32c-8.9-17.1-19.3-28-26-35
			c-9-9.4-19.1-17.8-30-25C309.4,133.2,277.1,129,259,128z"/>
	</g>
	<g id="shadow">
		<path class="st2" d="M115,274c-3.3-1.7,0.4-22,12-38c6.6-9.2,15.6-16.5,26-21c4.4-1.8,11.1-4.5,20-4c9.2,0.6,17.9,4.1,25,10
			c5.2,4.2,7.9,8.3,13,16c6.4,9.7,9.4,14.7,11,20s3.3,10.7,1,13c-3,3.1-10.4-1.3-21-5c-1.7-0.6-25.7-8.8-52-6
			c-7.8,0.8-15.8,1.8-24,7C119,270.4,116.7,274.9,115,274z"/>
		<path class="st2" d="M265.1,273.2c-3.3-1.7,0.4-22,12-38c6.6-9.2,15.6-16.5,26-21c4.4-1.8,11.1-4.5,20-4c9.2,0.6,17.9,4.1,25,10
			c5.2,4.2,7.9,8.3,13,16c6.4,9.7,9.4,14.7,11,20s3.3,10.7,1,13c-3,3.1-10.5-1.3-21-5c-1.7-0.6-25.7-8.8-52-6
			c-7.8,0.8-15.8,1.8-24,7C269.1,269.6,266.8,274,265.1,273.2z"/>
		<path class="st3" d="M121,213.4c0,0,44.6-56.8,84,0.6C205,214,165.6,176.1,121,213.4z"/>
		<path class="st3" d="M276.6,210.7c0,0,44.6-56.8,84,0.6C360.6,211.4,321.1,173.5,276.6,210.7z"/>
	</g>
	<g id="face">
		<path class="st4" d="M115,274.4c0,0,58-127.3,110,0H115z"/>
		
			<ellipse transform="matrix(0.9993 -3.786459e-02 3.786459e-02 0.9993 -9.3912 6.6448)" class="st5" cx="170.7" cy="251.3" rx="26" ry="33.8"/>
		<path class="st5" d="M167.9,350.1l156.9-21.7C324.9,328.4,270.4,468.2,167.9,350.1z"/>
		<path class="st4" d="M263.6,270.4c0,0,58-127.3,110,0H263.6z"/>
		
			<ellipse transform="matrix(0.9992 -3.996804e-02 3.996804e-02 0.9992 -9.6067 12.9894)" class="st5" cx="320.1" cy="246.8" rx="26" ry="33.8"/>
	</g>
	<g id="hair">
		<path class="st6" d="M410.8,271c2.7-0.5,1.8-10.6,2-42c0.1-22.7,0.7-33.8-6-45c-2.3-4.2-5.4-7.9-9-11c-9-7.5-18-7.5-18-10
			c0-4.1,24-2.3,30-13c5.4-9.6-2.2-27.1-13-35c-4.5-3.3-6-2.3-13-7c-9-6-12.4-11.5-17-16c-11.3-10.9-26.3-12.2-32-13
			c-14.1-2-15.7,2.3-25-1c-12.4-4.3-11.2-12.5-24-18c-1-0.5-15.5-6.5-30-1c-10,3.8-10.5,9.4-19,11c-9.7,1.8-16.4-4-24-7
			c-20.3-8.2-28.8,12.5-52,9c-15.6-2.4-19.2-11.3-28-8c-10.5,4-7.3,17.6-21,28c-11.2,8.4-17.9,2.9-25,11c-1.8,2.1-5.2,6.8-6,37
			c-0.3,11.3,3.4,16.1,0,23c-3.5,7.2-8.5,6.5-11,13c-3.2,8.4,3.9,12.6,5,26c1.3,14.6-6.7,15.4-5,30c0.7,6.1,3.8,12.4,10,25
			c3.2,6.5,4.8,8.8,7,9c5.2,0.5,10.3-10.4,12-14c7.7-16.5,2.6-24.3,10-32c6-6.4,10.6-2.3,17-9c8.1-8.5,8-22.6,8-29
			c-0.1-11.2-3.1-14.6,0-19c4.1-5.8,11.2-2.4,17-9c4.7-5.4,4.9-13.3,5-17c0.2-8-2.4-10.6-1-13c2.9-4.8,15,0,39,5
			c25.7,5.3,27.6,3.2,36,8c15.3,8.8,15.4,19.5,25,20c10.7,0.6,12.4-12.8,30-19c10-3.6,11.2,0.1,30-2c23.9-2.7,30.9-9.8,37-5
			c3.8,3,3.9,12.7,4,32c0.1,22.2-1.5,27.2,3,33c4.2,5.4,7.9,4.2,18,13c4.6,3.8,8.6,8.1,12,13c7.9,11.7,5.4,18.8,14,37
			C405.9,265.6,408.6,271.4,410.8,271z"/>
		<path class="st6" d="M369.8,136c0.5,1.8,5.2,18.9-4,27c-6.8,5.9-17.2,3.5-28,1c-5.2-1.2-15.5-4.2-30-14
			c-17.2-11.6-15.2-15.8-27-23c-2.7-1.6-27.5-16.4-50-8c-8.6,3.2-5.9,5.7-32,25c-10.3,7.6-15.6,11.5-23,15c-14.7,7-17.8,3.9-28,10
			c-15.5,9.3-17.9,22.2-24,21c-5.9-1.1-10-14.5-9-26c1.8-21.1,20.1-35.2,32-44c23-17,45.5-22.4,61-26c44.3-10.2,78.2-3.3,104,2
			c10.6,2.2,28.4,6.4,44,20C365.2,124.2,368.3,131,369.8,136z"/>
		<path class="st3" d="M150,88c-6-12.6,2.9-34,17-40c12.3-5.2,17.2,6,39,3c11.2-1.6,14.6-5.2,29-6c6.7-0.5,13.4-0.2,20,1
			c17.9,3.4,21.3,11.2,33,10c9-1,7.9-5.8,17-7c6.8-0.9,10.4,1.3,37,13c13.6,6,15.6,6.7,19,7c12.4,1.3,16.9-4.4,23-1
			c4,2.3,2.9,5.3,10,25c3.9,10.9,5.3,13.1,5,18c-0.8,6.4-3.6,12.3-8,17c-14.6,15-54.1-18.9-111-24c-41-3.7-89.2,7.7-119-6
			C158.7,97,152.9,94.1,150,88z"/>
		<path class="st3" d="M389,137l3,42"/>
		<path class="st3" d="M380,143c11.6,7.2,13.5,27.2,6,33c-4,3.1-10.3,1.8-14,0c-12.5-6-16.4-27.7-9-34
			C367.3,138.3,375.2,140.1,380,143z"/>
	</g>
</g>
<g id="hand">
	<path class="st7" d="M467.3,344.5c0.4,1.7,2.3,14.5,3.4,31.4c2.3,34.7,1.4,86.9-22.2,96.8c-2.3,1-16.3,1.2-44.1,1.8
		c-25.6,0.5-33.1-0.1-40.2-4.1c-2.1-1.2-8.9-5.4-16.9-24.6c-4.6-11.1-12.1-29.9-9.9-56c1.5-17.7,2.7-30.9,11.8-40.7
		C367.7,329,415.7,327.8,467.3,344.5z"/>
	<path class="st7" d="M468.4,313l-3.1-41.3c0,0-20.4-5.9-24.4,24.4c-4.1,30.2-16.7,54.2-16.7,54.2l-25.8,5.5l18.3,50.8l33.7-23.3
		l20.9,2.5L468.4,313z"/>
	<path class="st1" d="M466.6,349.5c0.4,1.7,2.3,14.5,3.4,31.4c2.3,34.7,1.4,86.9-22.2,96.8c-2.3,1-16.3,1.2-44.1,1.8
		c-25.6,0.5-33.1-0.1-40.2-4.1c-2.1-1.2-8.9-5.4-16.9-24.6c-4.6-11.1-12.1-29.9-9.9-56c1.5-17.7,2.7-30.9,11.8-40.7
		C367,334,415,332.8,466.6,349.5z"/>
	<path class="st1" d="M467.7,317.9l-3.1-41.3c0,0-20.4-5.9-24.4,24.4c-4.1,30.2-16.7,54.2-16.7,54.2l-25.8,5.5l18.3,50.8l33.7-23.3
		l20.9,2.5L467.7,317.9z"/>
	<path class="st8" d="M375.7,374l-36-2L375.7,374z"/>
	<path class="st8" d="M371.8,402.7l-36-2L371.8,402.7z"/>
	<path class="st8" d="M375.9,432.5l-36-2L375.9,432.5z"/>
	<path class="st8" d="M384.7,456.9l-36-2L384.7,456.9z"/>
</g>
</svg>
